<?xml version='1.0' encoding='utf-8'?>
<svg xmlns="http://www.w3.org/2000/svg" width="400mm" height="300mm" version="1.1" viewBox="0 0 400 300"><g transform="translate(365.65 -100.09)"><g transform="translate(-1840.6 -485.22)"><rect x="1474.9" y="585.32" width="400" height="300" rx="90.979" ry="1.848" fill="none" style="paint-order:fill markers stroke"/><g transform="matrix(1.604 0 0 1.604 -1616.7 -190.55)" stroke-width=".62344"><path d="m2033.6 510.51a2.701 2.701 0 0 0-2.7011 2.7011 2.701 2.701 0 0 0 2.7011 2.7006 2.701 2.701 0 0 0 2.7006-2.7006 2.701 2.701 0 0 0-2.7006-2.7011zm54.758 6.0854a2.701 2.701 0 0 0-2.7006 2.7011 2.701 2.701 0 0 0 2.7006 2.7006 2.701 2.701 0 0 0 2.7011-2.7006 2.701 2.701 0 0 0-2.7011-2.7011zm-115.12 46.779a2.701 2.701 0 0 0-2.7006 2.7006 2.701 2.701 0 0 0 2.7006 2.7011 2.701 2.701 0 0 0 2.7011-2.7011 2.701 2.701 0 0 0-2.7011-2.7006zm141.6 50.327a2.701 2.701 0 0 0-2.7011 2.7006 2.701 2.701 0 0 0 2.7011 2.7011 2.701 2.701 0 0 0 2.7012-2.7011 2.701 2.701 0 0 0-2.7012-2.7006zm-98.895 32.163a2.701 2.701 0 0 0-2.7011 2.7006 2.701 2.701 0 0 0 2.7011 2.7011 2.701 2.701 0 0 0 2.7006-2.7011 2.701 2.701 0 0 0-2.7006-2.7006z" fill="#fff6e5" stroke-linecap="square" stroke-width=".18703" style="paint-order:fill markers stroke"/><path d="m2112.8 496.23a2.9075 8.6499 0 0 0-2.7559 5.8937 8.6499 2.9075 0 0 0-5.8937 2.7559 8.6499 2.9075 0 0 0 5.8937 2.7564 2.9075 8.6499 0 0 0 2.7559 5.8937 2.9075 8.6499 0 0 0 2.7559-5.8937 8.6499 2.9075 0 0 0 5.8937-2.7564 8.6499 2.9075 0 0 0-5.8937-2.7559 2.9075 8.6499 0 0 0-2.7559-5.8937zm-122.75 17.386a2.9075 8.6499 0 0 0-2.7559 5.8937 8.6499 2.9075 0 0 0-5.8937 2.7559 8.6499 2.9075 0 0 0 5.8937 2.7564 2.9075 8.6499 0 0 0 2.7559 5.8937 2.9075 8.6499 0 0 0 2.7559-5.8937 8.6499 2.9075 0 0 0 5.8942-2.7564 8.6499 2.9075 0 0 0-5.8942-2.7559 2.9075 8.6499 0 0 0-2.7559-5.8937zm135.59 64.865a1.7926 5.3329 0 0 0-1.6986 3.6339 5.3329 1.7926 0 0 0-3.6339 1.6991 5.3329 1.7926 0 0 0 3.6339 1.6991 1.7926 5.3329 0 0 0 1.6986 3.6339 1.7926 5.3329 0 0 0 1.6996-3.6339 5.3329 1.7926 0 0 0 3.6334-1.6991 5.3329 1.7926 0 0 0-3.6334-1.6991 1.7926 5.3329 0 0 0-1.6996-3.6339zm-161.69 13.356a1.7926 5.3329 0 0 0-1.6991 3.6334 5.3329 1.7926 0 0 0-3.6339 1.6991 5.3329 1.7926 0 0 0 3.6339 1.6991 1.7926 5.3329 0 0 0 1.6991 3.6339 1.7926 5.3329 0 0 0 1.6991-3.6339 5.3329 1.7926 0 0 0 3.6339-1.6991 5.3329 1.7926 0 0 0-3.6339-1.6991 1.7926 5.3329 0 0 0-1.6991-3.6334zm110.57 49.082a2.9075 8.6499 0 0 0-2.7559 5.8937 8.6499 2.9075 0 0 0-5.8937 2.7559 8.6499 2.9075 0 0 0 5.8937 2.7559 2.9075 8.6499 0 0 0 2.7559 5.8937 2.9075 8.6499 0 0 0 2.7564-5.8937 8.6499 2.9075 0 0 0 5.8937-2.7559 8.6499 2.9075 0 0 0-5.8937-2.7559 2.9075 8.6499 0 0 0-2.7564-5.8937z" fill="#ffbb43" stroke-linecap="square" stroke-width=".18703" style="paint-order:fill markers stroke"/><g stroke-width=".62344"><circle cx="2048.2" cy="579.72" r="53.261" fill="#cc5f00" stroke-linecap="square" stroke-width=".18703" style="paint-order:fill markers stroke"/><path d="m2058.8 527.51c-2.2191 0.50884-4.3852 1.0366-6.411 1.6443-22.144 6.6432-44.18 24.31-57.076 44.577a53.261 53.261 0 0 0-0.3369 5.981 53.261 53.261 0 0 0 1.1596 11.054c16.493-21.139 37.362-39.814 64.249-46.019 7.5727-1.7476 17.161-2.0724 25.072-3.1316a53.261 53.261 0 0 0-26.657-14.106z" fill="#a84500" stroke-linecap="square" stroke-width=".18703" style="paint-order:fill markers stroke"/><path d="m2098.4 597.66c-4.7323-0.66666-9.9314-1.1715-11.196-1.1715-17.608 0-34.434 6.4162-47.981 17.423-4.7243 3.8386-9.9876 8.621-13.264 14.18a53.261 53.261 0 0 0 19.666 4.825c8.8546-11.058 28.28-18.55 41.72-17.023a53.261 53.261 0 0 0 11.055-18.233z" fill="#561f00" stroke-linecap="square" stroke-width=".18703" style="paint-order:fill markers stroke"/><path d="m2087.3 615.89c-13.44-1.527-32.865 5.9648-41.72 17.023a53.261 53.261 0 0 0 2.6267 0.065 53.261 53.261 0 0 0 39.093-17.088z" fill="#a84500" stroke-linecap="square" stroke-width=".18703" style="paint-order:fill markers stroke"/><path d="m2101.5 578.38c-7.0646-0.12112-16.37 0.21516-17.776 0.416-20.78 2.9685-40.027 8.3874-56.023 22.784-5.8931 5.3038-11.315 10.825-15.259 17.561a53.261 53.261 0 0 0 13.522 8.9494c3.2762-5.5585 8.5395-10.341 13.264-14.18 13.547-11.007 30.374-17.423 47.981-17.423 1.2643 0 6.4634 0.50485 11.196 1.1715a53.261 53.261 0 0 0 3.1125-17.94 53.261 53.261 0 0 0-0.017-1.3389z" fill="#a84500" stroke-linecap="square" stroke-width=".18703" style="paint-order:fill markers stroke"/><path d="m2085.4 541.62c-7.9113 1.0592-17.5 1.384-25.072 3.1316-26.886 6.2046-47.755 24.88-64.249 46.019a53.261 53.261 0 0 0 6.3857 16.274c10.129-32.424 58.097-54.697 93.037-51.769a53.261 53.261 0 0 0-10.102-13.655z" fill="#e57801" stroke-linecap="square" stroke-width=".18703" style="paint-order:fill markers stroke"/><path d="m2058.8 527.51a53.261 53.261 0 0 0-10.563-1.0583 53.261 53.261 0 0 0-52.924 47.28c12.896-20.267 34.932-37.934 57.076-44.577 2.0258-0.60774 4.1919-1.1355 6.411-1.6443z" fill="#561f00" stroke-linecap="square" stroke-width=".18703" style="paint-order:fill markers stroke"/><path d="m2059.2 532.35c-1.1106-1.8e-4 -2.0109 0.90017-2.0107 2.0107 1e-4 1.1104 0.9003 2.0104 2.0107 2.0102 1.1102-1e-4 2.0101-0.90005 2.0102-2.0102 2e-4 -1.1104-0.8998-2.0106-2.0102-2.0107zm8.5034 4.2597c-0.5737 0-1.0387 0.46504-1.0387 1.0387s0.465 1.0387 1.0387 1.0387 1.0387-0.46504 1.0387-1.0387-0.465-1.0387-1.0387-1.0387z" fill="#ff941a" style="paint-order:fill markers stroke"/><path d="m2089 560.52c-1.1102 1e-4 -2.0101 0.90004-2.0102 2.0102-2e-4 1.1104 0.8998 2.0106 2.0102 2.0107 1.1106 2.3e-4 2.011-0.90013 2.0108-2.0107-1e-4 -1.1104-0.9004-2.0104-2.0108-2.0102zm1.6743 9.7896c-0.5737 0-1.0387 0.46504-1.0387 1.0387s0.465 1.0387 1.0387 1.0387 1.0387-0.46503 1.0387-1.0387-0.465-1.0387-1.0387-1.0387z" fill="#fe9c2f" style="paint-order:fill markers stroke"/><path d="m2085 603.42c-0.5737 0-1.0387 0.46504-1.0387 1.0387s0.465 1.0387 1.0387 1.0387 1.0387-0.46503 1.0387-1.0387-0.465-1.0387-1.0387-1.0387z" fill="#b24900" style="paint-order:fill markers stroke"/><circle cx="2034.4" cy="532.51" r="1.0387" fill="#b24900" style="paint-order:fill markers stroke"/></g><path d="m2101.2 574.11c5.6958-4.5766 10.972-8.9542 15.299-12.883 7.7656-7.0515 12.483-12.674 14.547-16.801 1.0317-2.0638 1.3713-3.7279 0.9777-4.8545-0.1967-0.56328-0.5658-1.0131-1.1715-1.3725-0.6056-0.35943-1.4532-0.61753-2.5709-0.7369-4.4711-0.47751-13.162 1.2891-23.521 4.4147-10.359 3.1256-22.416 7.5906-36.22 14.157s-29.355 15.236-42.619 24.213c-13.264 8.9767-24.251 18.267-33.768 27.07-4.7588 4.4013-9.1479 8.6772-12.238 12.312-1.545 1.8174-2.7651 3.4764-3.5429 4.8943-0.7778 1.4178-1.0927 2.588-0.9307 3.3977s0.7763 1.3844 1.8634 1.7947c1.087 0.4103 2.6168 0.614 4.4266 0.63 3.6195 0.033 8.3568-0.6678 13.059-1.7152 7.1097-1.5836 14.152-3.9597 21.185-6.5324h0.01a53.261 53.261 0 0 1-2.3632-1.9074 15.832 76.226 60 0 1-25.145 1.539 15.832 76.226 60 0 1 11.721-19.022 15.832 76.226 60 0 1 46.376-32.802 15.832 76.226 60 0 1 44.775-21.469 15.832 76.226 60 0 1 21.101-5.2782 15.832 76.226 60 0 1 8.0543 2.3456 15.832 76.226 60 0 1-19.659 25.879 53.261 53.261 0 0 1 0.3597 2.7244z" fill="#ffbb43" stroke-linecap="square" stroke-width=".18703" style="paint-order:fill markers stroke"/><path d="m2134 528.13c-10.507 0.61873-27.267 5.8172-47.335 14.682-13.71 6.0563-28.463 13.603-43.009 22.002-16.957 9.7899-33.002 20.372-46.307 30.541-24.503 18.727-37.116 34.046-33.371 40.532 3.9668 6.8711 25.663 2.7769 56.587-10.678-1.3353-0.813-2.6342-1.6844-3.8928-2.6117-0.223-0.1643-0.4447-0.3304-0.6651-0.4982h-0.01c-7.0331 2.5727-14.076 4.9488-21.185 6.5324-4.7019 1.0474-9.4392 1.7483-13.059 1.7152-1.8098-0.016-3.3396-0.2197-4.4266-0.63-1.0871-0.4103-1.7014-0.985-1.8634-1.7947s0.1529-1.9799 0.9307-3.3977c0.7778-1.4179 1.9979-3.0769 3.5429-4.8943 3.0901-3.6347 7.4792-7.9106 12.238-12.312 9.5174-8.8025 20.504-18.093 33.768-27.07 13.264-8.9767 28.816-17.646 42.619-24.213s25.861-11.032 36.22-14.157c10.359-3.1256 19.05-4.8922 23.521-4.4147 1.1177 0.11937 1.9653 0.37747 2.5709 0.7369 0.6057 0.35943 0.9748 0.80925 1.1715 1.3725 0.3936 1.1266 0.054 2.7907-0.9777 4.8545-2.0638 4.1275-6.7813 9.7495-14.547 16.801-4.3271 3.9292-9.603 8.3074-15.299 12.884 0.03 0.27746 0.2852 3.7664 0.2954 5.2364 30.76-21.805 47.798-40.594 43.525-47.997-1.4254-2.4696-5.179-3.5629-11.046-3.2174z" fill="#fff6e5" stroke-linecap="square" stroke-width=".18703" style="paint-order:fill markers stroke"/></g></g></g></svg>